<svg xmlns="http://www.w3.org/2000/svg" viewBox="0 0 525 300"><path d="M237.2 106.9c21.6 0 34 11.4 34 30.3v16.2c0 18.7-12.4 30.3-34 30.3h-27c-3.5 0-4.8-1.2-4.8-4.5v-67.7c0-3.4 1.2-4.5 4.8-4.5h27zm12.1 30.6c0-7.8-4.3-11.7-12.8-11.7h-9.1v38.9h9.1c8.5 0 12.8-3.9 12.8-11.7v-15.5zM356 106.8c3.5 0 4.8 1.1 4.8 4.5v67.9c0 3.4-1.2 4.4-4.8 4.4h-12.1c-3.5 0-4.7-1.1-4.7-4.4v-15.5c0-7.8 1.7-17.2 4.9-28.3h-1.2c-.6 1.8-1.7 4.8-3.3 8.8-1.7 4-3 7-4.1 9.1l-6.2 12.2c-1.3 2.3-2.5 3.1-5.3 3.1h-7.4c-3 0-4.1-.6-5.3-3.1l-6.5-12.2c-2.3-4-4.5-10-6.9-17.8h-1.1c3 11.8 4.5 21.3 4.5 28.4v15.4c0 3.4-1.2 4.4-4.8 4.4h-11.3c-3.5 0-4.8-1.1-4.8-4.4v-67.9c0-3.5 1.2-4.5 4.8-4.5h10.4c3.9 0 4.9.6 6.5 3.4l18.3 35 18.3-34.9c1.4-2.9 2.5-3.5 6.2-3.5H356zm39.3 19c18.6 0 25.8 8.5 25.8 23.4v26.6c0 3.9-.8 5.2-4.2 6.5-4.9 2.1-12.2 3-21.9 3-10.1 0-16.9-1.4-20.7-4.2s-5.6-7.4-5.6-13.7c0-6.8 2.1-11.6 6.2-14.2 4.1-2.6 11-3.9 20.7-3.9 1.3 0 4.2.1 5 .1v-2.7c0-3.7-2.1-5.5-6.2-5.5-3 0-5.3 1.2-7.2 3.7-1.7 2.2-2.4 2.6-6.1 1.4l-8-3.2c-3.1-1.3-3.8-2.8-2.3-5.9 3.9-7.6 12.1-11.4 24.5-11.4zm5.2 37.2c-1-.1-2.9-.1-5.9-.1-3.9 0-5.9 1.4-5.9 4.3 0 2.7 1.3 4.3 5.6 4.3 2.5 0 4.4-.1 5.5-.3.3 0 .6-.2.6-.5V163zm59.3-37.2c3.2 0 4.2 1.1 4.2 4.1v9.2c0 3.1-1 4.2-4.2 4.2h-4.2c-2 0-3.7.1-5.1.4-.3 0-.6.2-.6.6v35.2c0 3-1.1 4.1-4.3 4.1h-12.1c-3.2 0-4.3-1.1-4.3-4.1v-43.8c0-3.6 1-5.1 4.7-6.5 5.4-2.1 12.8-3.1 22.5-3.5h3.4zm64.2 52.4c2.1 3.8 1 5.5-3.4 5.5h-10.2c-5.2 0-6.8-.6-8.1-4.1l-5-13c-1-2.2-2.7-3.2-5.1-3.2h-2v16.1c0 3.1-1.1 4.2-4.3 4.2h-12.1c-3.2 0-4.2-1.1-4.2-4.2v-71.6c0-3.1 1-4.2 4.2-4.2h12.1c3.2 0 4.3 1.1 4.3 4.2v39h2.4l9.3-15.6c1.8-3.1 3.2-3.9 8-3.9h9.9c4.4 0 5.5 1.7 3.4 5.3l-12.5 21c1.3 1.1 2.5 2.7 3.7 4.9l9.6 19.6zm-325 37.4c-5.1-7.4-12.8-18.9-18.8-30-5.2-9.6-7.3-20.4-6.8-31.3.1-1.4.1-2.8.1-4.3 0-50.2-41.9-90.5-92.3-87.3C38 65.4 2.9 100.8.2 144.4-3 195.3 37 237.5 86.8 237.5c16.2 0 31.4-4.5 44.4-12.3 10.8-6.5 23.5-9.2 36.1-7.8 10.3 1.1 20.7 2.9 27.9 4.3 3.4.6 5.8-3.2 3.8-6.1zm-155.3-52c.9 10.2 4.4 20.5 10.9 30.4 1.6 2.5-1.2 5.5-3.8 4-11.2-6.2-20.2-17.4-24.4-30.5-5.6-16.8-3.1-36.6 6.6-52 9.6-15.5 26.3-26.2 43.7-28.3 13.6-1.8 27.6 1.7 37.9 9.3 2.4 1.7.9 5.6-2 5.2-11.6-1.6-22.4-.4-32 3.1-12.1 4.5-21.9 12.6-28.5 23-6.4 10.4-9.5 22.8-8.4 35.8zm38.2 10.9c.6 6.8 3 13.7 7.3 20.3 1.1 1.7-.7 3.8-2.5 2.8-7.5-4.2-13.6-11.7-16.4-20.5-3.7-11.3-2.1-24.6 4.5-34.9 6.4-10.4 17.7-17.6 29.4-19 9.1-1.2 18.5 1.1 25.4 6.2 1.6 1.2.5 3.7-1.5 3.4-7.8-1.1-15-.3-21.4 2.1-8.2 3-14.8 8.5-19.2 15.5-4.3 7-6.4 15.4-5.6 24.1zm45.6-16.1c-5.2 1.7-9.4 5.2-12.2 9.6-2.8 4.4-4.1 9.8-3.4 15.3.5 4.3 2.2 8.6 5 12.5.6.8-.3 1.9-1.2 1.3-4.4-2.7-8-7.2-9.6-12.6-2.1-6.7-1.1-14.6 2.8-20.7 3.8-6.2 10.4-10.4 17.3-11.4 5.5-.8 11.1.4 15.4 3.4.8.6.3 1.9-.7 1.7-4.7-.8-9.3-.5-13.4.9zm19.3 36.2c-2.5.6-5.1.1-7.1-1.2s-3.6-3.4-4.2-6c-1.1-5.1 2.1-10.2 7.2-11.4 2.5-.6 5.1-.1 7.1 1.2s3.6 3.4 4.2 6c1.1 5.2-2.1 10.3-7.2 11.4z" fill="#fff"/></svg>