<svg xmlns="http://www.w3.org/2000/svg" viewBox="0 0 16 16"><path d="M15.9 13.3c-.4-.6-1-1.5-1.5-2.4-.4-.8-.6-1.6-.5-2.5v-.3c0-4-3.4-7.2-7.4-7C3 1.2.2 4.1 0 7.6c-.2 4 3 7.4 7 7.4 1.3 0 2.5-.4 3.6-1 .9-.5 1.9-.7 2.9-.6.8.1 1.7.2 2.2.3.2.1.4-.2.2-.4zM3.5 9.1c.1.8.4 1.6.9 2.4.1.2-.1.4-.3.3-.9-.5-1.6-1.4-2-2.4-.4-1.3-.2-2.9.5-4.2C3.4 4 4.8 3.1 6.1 3c1.1-.1 2.2.1 3 .7.3.2.2.5-.1.4-.9-.1-1.8 0-2.5.3-1 .4-1.8 1-2.3 1.8-.5.9-.8 1.8-.7 2.9zm3.1.9c0 .5.2 1.1.6 1.6.1.1-.1.3-.2.2-.6-.3-1.1-.9-1.3-1.6-.4-.9-.2-2 .3-2.8.5-.9 1.4-1.4 2.3-1.5.7-.1 1.5.1 2 .5.1.1 0 .3-.1.3-.6-.1-1.2 0-1.7.2C7.9 7 7.4 7.5 7 8c-.3.6-.5 1.3-.4 2zm3.6-1.3c-.4.1-.8.4-1 .8-.2.3-.3.7-.2 1.2 0 .3.2.7.4 1 0 .1 0 .1-.1.1-.4-.2-.6-.6-.8-1-.2-.5-.1-1.2.2-1.7.3-.5.9-.8 1.4-.9.4-.1.9 0 1.2.3.1 0 0 .1-.1.1-.3-.1-.7 0-1 .1zm1.6 2.9c-.2 0-.4 0-.6-.1-.2-.1-.3-.3-.3-.5-.1-.4.2-.8.6-.9.2 0 .4 0 .6.1.2.1.3.3.3.5 0 .4-.2.8-.6.9z"/></svg>